<?xml version="1.0" standalone="no"?>
<!DOCTYPE svg PUBLIC "-//W3C//DTD SVG 20010904//EN"
 "http://www.w3.org/TR/2001/REC-SVG-20010904/DTD/svg10.dtd">
<svg version="1.0" xmlns="http://www.w3.org/2000/svg"
 width="4500.000000pt" height="4500.000000pt" viewBox="0 0 4500.000000 4500.000000"
 preserveAspectRatio="xMidYMid meet">
<metadata>
Created by potrace 1.11, written by Peter Selinger 2001-2013
</metadata>
<g transform="translate(0.000000,4500.000000) scale(0.100000,-0.100000)"
fill="#000000" stroke="none">
<path d="M38257 34244 c-1 -1 -15 -4 -32 -7 -115 -19 -458 -105 -534 -133 -57
-21 -166 -88 -243 -148 -14 -12 -50 -37 -79 -56 -86 -57 -168 -147 -278 -300
-111 -155 -144 -215 -162 -295 l-11 -51 -47 23 c-43 20 -190 67 -245 77 -40 8
-201 45 -256 60 -114 29 -243 37 -380 23 -52 -6 -251 -44 -320 -61 -20 -6
-111 -27 -130 -31 -8 -1 -35 -8 -60 -15 -25 -7 -56 -14 -70 -17 -87 -16 -225
-60 -288 -92 -82 -42 -285 -195 -316 -238 -16 -24 -35 -43 -40 -43 -6 0 -40 7
-76 16 -36 9 -73 17 -83 19 -10 2 -26 6 -35 9 -54 15 -320 25 -340 12 -4 -2
-32 -7 -62 -10 -30 -3 -131 -24 -225 -46 -93 -23 -181 -43 -195 -46 -94 -19
-301 -79 -354 -103 -50 -23 -133 -76 -221 -143 -5 -4 -33 -25 -60 -46 -28 -22
-57 -38 -65 -36 -8 1 -55 12 -103 23 -139 33 -123 35 -492 -54 -104 -25 -215
-55 -245 -67 -130 -50 -323 -155 -422 -230 -25 -18 -87 -64 -139 -101 -52 -38
-105 -84 -119 -103 -14 -20 -29 -41 -35 -47 -23 -28 -112 -155 -135 -192 -13
-22 -25 -42 -27 -44 -1 -2 -42 10 -90 27 -76 26 -143 45 -204 57 -9 2 -65 15
-125 30 -326 79 -455 79 -774 0 -8 -2 -100 -24 -205 -50 -269 -64 -357 -91
-465 -141 -52 -25 -97 -48 -100 -52 -8 -11 -100 -72 -108 -72 -5 0 -9 21 -11
47 -1 25 -9 71 -17 102 -8 31 -17 70 -20 86 -2 17 -7 38 -10 47 -3 9 -7 25 -9
35 -2 10 -11 50 -20 88 -9 39 -19 81 -22 95 -8 47 -54 175 -75 210 -26 44 -71
113 -78 120 -3 3 -39 52 -80 110 -73 103 -185 223 -252 268 -18 12 -73 52
-121 87 -48 36 -92 65 -97 65 -4 0 -10 4 -12 8 -12 29 -253 141 -333 155 -16
3 -76 17 -133 31 -56 14 -117 28 -134 31 -17 3 -34 8 -38 10 -3 2 -17 6 -31 9
-13 2 -58 12 -99 21 -132 28 -168 28 -281 1 -57 -14 -147 -35 -199 -47 -68
-16 -107 -31 -137 -53 -23 -17 -76 -56 -118 -86 -74 -53 -92 -73 -216 -250
-19 -26 -36 -79 -59 -176 -17 -77 -36 -152 -40 -169 -22 -74 -26 -109 -35
-305 -3 -85 -8 -177 -10 -205 -2 -27 -7 -108 -10 -180 -3 -71 -8 -161 -10
-200 -2 -38 -7 -115 -10 -170 -16 -303 -24 -428 -27 -430 -2 -1 -48 -12 -103
-25 -148 -34 -252 -68 -325 -108 -56 -30 -259 -166 -293 -197 -7 -6 -28 -22
-47 -35 -60 -41 -154 -131 -198 -190 -15 -19 -29 -37 -32 -40 -14 -13 -201
-282 -232 -335 -97 -162 -212 -443 -242 -591 -3 -10 -9 -39 -15 -64 -7 -25
-14 -56 -17 -70 -3 -14 -14 -59 -24 -100 -10 -41 -21 -86 -23 -100 -3 -14 -10
-43 -15 -65 -6 -22 -13 -51 -16 -65 -3 -14 -14 -68 -25 -120 -10 -52 -22 -115
-25 -140 -3 -25 -8 -56 -11 -69 -2 -13 -7 -49 -10 -80 -4 -31 -8 -71 -10 -89
-8 -66 -18 -260 -19 -354 0 -54 -3 -98 -6 -98 -3 0 -36 57 -75 126 -38 70 -80
145 -93 168 -25 46 -124 233 -227 431 -96 183 -604 1200 -720 1440 -117 243
-236 481 -306 612 -80 151 -200 365 -220 395 -11 14 -19 29 -19 32 0 5 -44 78
-180 301 -24 39 -98 153 -164 255 -67 102 -136 215 -154 251 -17 36 -44 82
-59 102 -16 19 -68 92 -117 160 -106 150 -155 199 -306 308 -251 181 -282 195
-600 273 -461 112 -505 118 -785 103 -66 -3 -136 -9 -155 -12 -135 -25 -220
-43 -405 -87 -260 -62 -291 -69 -449 -112 -32 -9 -111 -30 -175 -47 -97 -25
-128 -39 -191 -82 -41 -28 -84 -59 -94 -69 -11 -10 -24 -18 -29 -18 -10 0 -97
-89 -97 -101 0 -4 -6 -14 -13 -21 -7 -7 -33 -42 -59 -78 -40 -57 -57 -97 -73
-170 -2 -8 -18 -73 -35 -145 -17 -71 -33 -138 -35 -148 -2 -9 0 -30 5 -45 5
-15 23 -90 40 -167 17 -77 36 -156 42 -175 12 -38 153 -239 215 -306 21 -23
56 -63 78 -89 22 -27 46 -54 53 -61 7 -7 29 -35 49 -61 20 -26 39 -50 43 -53
3 -3 19 -22 34 -43 l29 -37 -17 -88 c-21 -103 -79 -337 -136 -547 -23 -82 -52
-193 -66 -245 -32 -119 -272 -966 -284 -1000 -5 -14 -21 -65 -35 -115 -15 -49
-38 -126 -51 -170 -30 -102 -160 -531 -184 -610 -10 -33 -40 -127 -65 -210
-26 -82 -76 -242 -112 -355 -36 -113 -75 -239 -88 -280 -68 -225 -372 -1135
-511 -1530 -26 -74 -57 -164 -69 -200 -106 -307 -339 -939 -441 -1200 -75
-190 -185 -461 -194 -479 -5 -9 -15 -32 -23 -51 -53 -124 -161 -345 -199 -406
-14 -22 -36 -83 -48 -135 -22 -90 -25 -96 -74 -140 -46 -42 -53 -45 -81 -37
-38 12 -284 18 -329 8 l-33 -7 43 126 c64 192 198 678 220 801 3 14 10 43 16
65 5 22 12 51 15 65 2 14 8 41 14 60 9 34 83 369 92 420 32 171 48 262 52 295
3 22 8 51 11 65 16 87 48 333 59 465 4 39 8 80 10 93 6 33 17 260 19 369 1 51
-3 114 -10 140 -6 26 -28 120 -49 207 l-38 159 -90 126 c-50 69 -102 138 -116
152 -14 15 -40 44 -57 65 -18 22 -47 55 -65 75 -19 20 -55 61 -81 92 -26 30
-71 71 -100 91 -186 128 -172 122 -351 165 -236 57 -222 57 -387 17 -79 -20
-147 -32 -151 -28 -4 4 -10 50 -14 102 -3 52 -8 104 -10 115 -2 11 -7 54 -10
95 -3 41 -8 89 -10 105 -4 29 -8 68 -21 200 -3 33 -7 75 -10 93 -2 18 -11 96
-19 175 -9 78 -18 153 -20 167 -3 14 -8 45 -11 68 -3 24 -19 101 -35 170 -17
70 -32 134 -34 142 -40 177 -38 174 -159 339 -82 114 -168 211 -187 211 -4 0
-14 6 -21 13 -58 55 -271 193 -356 231 -90 39 -356 113 -552 152 -14 3 -50 11
-80 19 -48 12 -127 27 -210 41 -14 2 -81 7 -150 10 -100 5 -141 3 -200 -11
-41 -9 -82 -18 -90 -20 -258 -58 -250 -56 -350 -127 -143 -101 -155 -112 -225
-213 -36 -52 -71 -100 -79 -107 -8 -8 -19 -41 -26 -74 -7 -32 -21 -93 -31
-134 -11 -41 -22 -86 -25 -100 -2 -14 -9 -39 -15 -57 -9 -29 -8 -82 6 -268 2
-22 6 -68 9 -102 3 -35 8 -91 11 -125 3 -35 8 -81 10 -103 4 -39 8 -86 20
-245 3 -41 8 -88 10 -105 2 -16 7 -66 10 -110 3 -44 8 -93 10 -110 3 -29 16
-196 19 -244 1 -22 -3 -24 -54 -27 -103 -6 -188 -20 -365 -61 -400 -92 -478
-115 -600 -175 -53 -27 -192 -114 -205 -129 -3 -3 -36 -27 -75 -54 -38 -28
-74 -53 -80 -58 -5 -4 -32 -24 -59 -44 -68 -52 -113 -97 -179 -178 -72 -88
-66 -79 -118 -154 -92 -132 -102 -146 -108 -151 -11 -9 -108 -173 -137 -232
l-27 -57 -51 43 c-79 67 -325 240 -381 269 -27 13 -77 32 -110 41 -69 18 -308
75 -345 82 -14 3 -42 9 -63 15 -124 33 -268 28 -452 -16 -55 -13 -158 -38
-230 -55 -236 -56 -341 -90 -506 -168 l-67 -31 -6 32 c-3 18 -8 41 -11 52
-101 440 -142 541 -321 792 -144 201 -186 251 -264 309 -36 27 -67 51 -70 54
-21 22 -224 158 -282 189 -100 53 -172 77 -348 116 -8 2 -46 11 -85 20 -38 9
-77 18 -85 20 -8 2 -48 11 -89 20 -41 9 -77 18 -80 20 -38 22 -421 23 -581 0
-14 -2 -52 -6 -85 -10 -80 -8 -129 -14 -195 -25 -30 -5 -71 -11 -90 -14 -92
-14 -279 -48 -315 -58 -22 -6 -49 -12 -60 -14 -44 -6 -276 -65 -300 -76 -14
-6 -25 -15 -25 -19 0 -4 -8 -10 -18 -13 -10 -4 -27 -14 -38 -24 -10 -9 -45
-35 -78 -57 -62 -42 -84 -67 -180 -203 -47 -66 -65 -102 -75 -147 -7 -33 -28
-123 -46 -200 -19 -80 -32 -157 -30 -180 4 -49 15 -182 20 -255 3 -30 7 -80
10 -110 2 -30 7 -91 10 -135 3 -44 8 -100 10 -125 3 -25 9 -106 15 -180 6 -74
13 -160 15 -190 3 -30 7 -86 10 -125 3 -38 7 -88 10 -110 2 -22 7 -78 10 -125
3 -47 8 -107 10 -135 3 -27 7 -81 10 -120 3 -38 8 -90 10 -115 2 -25 7 -83 10
-130 3 -47 8 -101 10 -120 2 -19 7 -79 10 -133 4 -54 8 -106 10 -115 1 -10 6
-67 10 -127 3 -61 8 -121 10 -135 2 -14 6 -65 10 -115 3 -49 8 -106 10 -125 2
-19 6 -73 10 -120 3 -47 8 -101 10 -120 2 -19 7 -75 10 -125 3 -49 8 -103 10
-120 2 -16 7 -73 10 -125 3 -52 7 -106 10 -120 2 -14 7 -71 10 -126 3 -56 8
-112 10 -125 2 -13 6 -66 10 -117 3 -52 7 -108 10 -125 3 -28 9 -98 20 -262 2
-27 6 -79 10 -115 3 -36 7 -90 10 -120 3 -30 7 -83 10 -118 3 -35 8 -98 10
-140 3 -42 7 -93 10 -112 4 -33 13 -147 20 -250 2 -25 6 -72 9 -105 6 -65 13
-161 21 -270 3 -38 8 -90 10 -115 2 -25 7 -81 10 -125 3 -44 8 -96 10 -115 2
-19 7 -78 10 -130 4 -52 8 -108 10 -125 10 -112 25 -298 40 -495 3 -47 8 -101
10 -120 3 -19 7 -75 10 -125 3 -49 7 -106 9 -125 2 -19 7 -75 11 -125 3 -49 8
-106 10 -125 2 -19 6 -71 9 -115 4 -44 8 -107 11 -140 7 -82 15 -186 20 -270
3 -38 7 -88 10 -110 2 -22 7 -80 10 -130 4 -49 8 -109 10 -131 2 -23 6 -81 10
-130 3 -49 7 -107 10 -129 2 -22 7 -80 10 -130 3 -49 8 -110 10 -135 2 -25 7
-83 10 -130 3 -47 8 -105 10 -130 2 -25 7 -90 10 -145 4 -55 9 -116 10 -135 2
-19 7 -73 10 -120 3 -47 8 -116 10 -155 3 -38 7 -104 10 -145 3 -41 7 -106 10
-145 9 -132 22 -336 30 -485 3 -58 8 -141 11 -185 9 -127 9 -549 1 -678 -9
-136 -32 -298 -46 -324 -5 -10 -32 -65 -59 -123 -62 -130 -152 -235 -232 -269
-45 -19 -67 -22 -196 -20 -163 1 -225 13 -359 66 -184 72 -472 232 -564 311
l-43 38 80 58 c49 35 94 79 118 112 22 30 46 63 54 73 8 11 22 29 30 41 8 12
22 32 31 44 21 28 152 300 170 351 7 22 16 45 20 50 13 19 78 200 108 304 31
103 34 116 46 176 3 17 10 46 15 65 28 102 81 346 90 420 12 91 15 247 5 320
-3 25 -17 92 -31 150 -31 128 -34 138 -40 170 -3 14 -12 52 -21 85 -8 33 -17
69 -19 79 -8 44 -39 126 -71 190 -45 91 -213 326 -283 396 -79 80 -342 263
-453 316 -78 36 -222 81 -357 109 -28 6 -115 27 -140 33 -64 17 -203 4 -350
-34 -44 -11 -229 -55 -250 -59 -226 -48 -400 -138 -695 -360 -11 -8 -51 -38
-90 -67 -126 -93 -235 -189 -365 -323 -120 -123 -134 -139 -222 -247 -62 -77
-169 -219 -228 -303 -14 -20 -39 -55 -56 -78 -65 -90 -163 -237 -226 -342 -64
-107 -198 -353 -198 -364 0 -3 -7 -18 -15 -34 -47 -90 -134 -316 -178 -462
-16 -52 -38 -144 -53 -214 -3 -13 -27 -114 -55 -225 -27 -110 -52 -212 -54
-226 -3 -14 -12 -52 -20 -85 -65 -243 -90 -435 -90 -690 0 -259 9 -332 76
-615 17 -69 37 -154 46 -189 8 -36 17 -74 19 -85 8 -46 59 -186 95 -263 34
-75 122 -220 162 -269 9 -10 46 -62 83 -114 91 -128 134 -179 233 -274 112
-108 107 -103 181 -164 36 -29 74 -61 85 -70 44 -36 345 -251 425 -303 241
-159 507 -282 835 -389 138 -45 675 -179 825 -206 136 -25 192 -34 235 -39 28
-4 57 -8 65 -10 8 -2 49 -7 90 -10 41 -4 91 -9 110 -11 19 -3 163 -7 320 -9
284 -3 400 2 627 31 39 5 47 1 150 -74 110 -81 123 -86 277 -118 10 -2 57 -13
105 -25 100 -25 156 -30 226 -19 28 4 75 11 105 15 30 3 62 8 70 10 8 2 40 7
70 10 58 7 98 12 140 20 14 2 43 7 65 9 22 3 120 17 217 31 98 14 199 27 225
30 26 3 77 10 113 16 135 21 188 28 235 34 22 3 54 7 70 9 17 3 50 8 75 11 25
3 88 12 140 20 52 8 122 17 155 21 33 3 62 8 65 9 3 2 33 7 65 10 33 4 67 8
75 10 28 5 95 15 140 20 25 3 56 8 70 10 14 2 43 7 65 10 54 7 102 13 150 20
36 5 303 43 350 50 11 1 47 6 80 10 33 4 69 9 80 11 11 2 40 6 65 9 25 3 56 8
70 10 14 3 45 7 70 10 45 6 82 11 130 20 14 2 50 7 80 10 30 3 66 8 80 10 32
6 75 13 125 19 22 3 108 15 190 27 83 11 164 22 180 25 40 5 174 24 205 29 14
3 50 7 80 11 30 3 64 8 75 10 11 2 40 6 65 9 25 3 56 8 70 10 14 3 48 7 75 11
55 6 83 10 135 19 19 4 49 8 65 10 17 2 50 6 75 10 107 15 258 36 295 41 99
13 149 21 198 30 17 4 39 6 47 6 8 0 40 4 70 9 30 5 73 11 95 14 21 2 75 10
120 16 44 6 89 12 100 14 11 1 74 10 140 20 66 9 135 18 153 20 18 2 45 6 60
9 15 3 52 8 82 12 30 3 57 7 60 9 3 1 36 6 75 10 38 4 72 8 75 10 3 1 30 6 61
9 31 4 65 8 75 10 58 10 120 19 126 18 4 -1 29 2 55 7 26 5 73 12 103 16 30 3
82 10 115 15 33 5 80 12 105 15 25 3 59 8 75 11 66 11 82 13 135 19 30 3 66 8
80 10 41 7 79 13 205 30 66 9 131 18 145 20 14 2 77 11 140 20 63 9 126 18
140 20 14 2 43 6 65 9 22 3 90 12 150 21 61 8 124 17 140 20 17 2 64 8 105 14
41 6 91 13 110 16 19 3 98 14 175 24 77 11 156 22 175 25 19 2 51 7 70 10 19
3 71 10 115 16 44 6 91 13 105 15 14 2 45 6 70 10 25 3 56 8 70 10 14 2 45 7
70 10 25 3 56 8 70 10 14 2 48 7 75 10 89 11 118 15 149 21 17 3 47 7 66 9 19
2 49 6 65 9 17 3 50 8 75 11 25 3 72 10 105 15 33 5 80 12 105 15 60 7 189 25
220 30 14 2 45 7 69 10 23 3 55 7 70 9 28 5 147 22 221 31 90 12 115 16 140
20 14 3 45 7 70 10 25 3 54 7 66 9 12 2 45 7 74 11 29 4 61 8 70 10 9 2 41 6
70 10 29 4 62 9 74 11 12 2 46 6 76 9 30 4 62 8 70 10 8 2 38 7 65 10 28 3 61
8 75 10 14 2 45 7 70 10 25 4 56 8 70 10 14 2 43 6 65 9 22 3 105 15 185 26
156 22 201 29 252 35 18 2 51 7 73 10 22 4 51 8 65 10 54 8 177 25 215 30 23
3 50 7 60 9 11 2 49 7 85 12 36 4 67 8 70 9 3 1 30 5 60 9 30 5 63 10 72 11 9
2 48 7 85 10 37 4 70 9 73 10 3 2 28 6 55 9 28 4 59 8 71 10 12 2 45 7 75 11
30 3 65 8 79 10 14 2 45 7 70 10 25 4 56 8 70 10 36 6 227 33 285 40 28 3 75
10 105 15 30 5 82 12 115 16 33 3 62 7 65 9 3 2 30 6 60 10 30 3 82 10 115 15
33 5 83 12 110 15 28 3 91 12 140 20 50 8 110 17 135 19 42 5 91 12 150 21 14
3 61 10 105 15 85 12 135 19 175 25 45 7 324 46 360 50 19 3 51 7 70 10 19 3
55 7 80 10 25 3 56 8 70 10 14 3 39 7 55 9 44 6 196 27 225 31 14 2 45 6 70
10 76 11 93 14 140 20 25 3 72 10 105 15 33 5 80 12 104 15 23 3 55 7 70 9 14
3 49 7 76 10 28 4 61 8 75 11 14 2 41 6 60 9 71 9 136 19 155 22 11 2 43 6 70
9 28 3 61 8 75 10 41 8 78 13 235 35 83 11 166 23 186 25 74 11 119 17 224 31
28 3 59 8 70 10 11 2 40 6 65 9 25 3 56 8 70 10 14 2 45 7 70 10 25 3 56 8 70
10 14 3 45 7 70 10 25 3 56 7 70 10 14 3 45 7 70 10 25 3 122 16 215 30 154
23 247 36 360 50 22 3 69 10 105 16 36 5 79 11 95 13 80 11 133 18 160 22 46
7 75 12 130 19 28 3 61 8 75 10 21 3 216 31 285 40 11 2 56 8 100 14 45 6 98
14 120 16 21 3 50 7 64 10 14 2 46 7 71 10 25 3 88 12 140 20 52 8 115 17 140
20 25 3 56 8 70 10 21 3 77 11 300 41 19 3 46 7 60 9 14 3 45 7 70 10 42 5 91
11 150 20 14 3 93 14 175 26 171 24 171 24 244 34 30 3 61 8 70 10 9 2 44 6
76 10 33 4 69 9 80 11 11 3 38 7 60 9 53 7 114 15 145 20 14 2 45 6 70 10 25
3 56 8 70 10 14 2 45 7 70 10 25 4 56 8 70 10 14 2 50 7 80 10 30 4 62 9 70
10 28 5 165 25 210 30 25 3 52 7 60 9 8 3 42 7 75 11 33 3 67 8 75 10 8 2 38
6 65 10 28 3 64 8 80 10 17 3 47 7 68 10 50 7 138 19 252 36 39 5 88 12 110
14 22 3 51 7 65 10 14 3 45 7 70 10 25 3 108 15 185 25 77 11 154 22 170 24
17 3 50 7 75 11 25 3 59 8 75 10 17 2 75 10 130 19 55 8 120 17 145 20 25 3
54 8 65 10 11 2 47 7 80 11 32 4 66 8 75 10 8 1 38 6 65 9 48 7 92 13 145 21
14 2 61 9 106 15 44 6 89 12 100 14 10 2 44 7 74 11 30 4 62 9 70 10 8 2 44 6
80 10 36 4 67 8 70 10 3 2 32 6 65 9 33 4 67 8 75 11 8 2 38 6 65 10 28 3 82
10 120 16 39 5 88 12 110 15 22 3 85 12 140 20 55 8 120 17 145 20 25 2 59 7
75 10 17 3 46 7 65 10 19 2 46 6 60 9 25 4 69 10 145 20 22 2 90 12 150 20 61
9 121 18 135 20 14 2 45 6 70 10 102 15 147 21 215 30 22 2 49 6 60 9 11 2 46
7 79 11 32 3 68 8 80 10 29 5 77 12 172 25 44 6 90 12 101 14 11 3 44 7 74 11
30 3 79 10 109 15 30 5 80 12 110 16 70 8 90 11 142 19 24 4 54 8 68 10 14 2
45 6 70 10 82 12 95 14 140 20 25 3 63 8 85 11 22 3 51 7 65 9 110 15 194 28
245 35 55 9 142 21 255 35 25 3 52 8 60 10 8 2 42 6 75 10 33 3 67 8 75 10 8
2 38 7 65 10 28 3 64 7 80 10 17 2 48 7 70 10 22 3 72 10 110 16 39 6 81 12
95 14 81 11 126 17 295 40 23 3 50 7 60 9 11 2 45 7 75 11 30 4 62 9 70 10 8
2 42 6 75 10 32 3 62 8 65 10 3 2 34 6 70 9 36 4 76 9 90 11 14 3 39 7 55 9
71 10 122 18 145 21 14 3 45 7 70 10 25 4 54 8 65 9 11 2 45 6 75 10 30 4 80
11 110 16 30 5 78 12 105 15 28 4 61 8 75 10 14 2 43 6 65 9 48 7 250 35 285
41 28 4 79 11 155 21 28 3 57 8 67 9 9 2 38 6 65 10 26 4 59 8 73 10 14 2 48
7 75 10 28 4 57 8 65 10 8 3 40 7 70 10 48 5 115 15 210 30 14 2 63 9 110 15
47 6 96 13 110 15 14 3 52 8 85 11 33 4 63 8 67 10 3 2 28 7 55 9 44 5 107 14
143 20 8 2 40 6 71 9 31 4 65 8 75 10 16 3 49 8 144 21 8 2 40 6 70 9 30 4 66
9 80 11 14 2 106 16 205 30 99 14 194 27 210 30 17 2 53 7 80 10 28 4 57 8 65
10 8 2 40 7 70 10 30 3 66 8 80 10 48 9 160 25 278 40 24 3 128 18 212 30 14
2 45 7 70 10 25 3 72 10 105 15 33 5 80 12 105 15 72 9 103 13 143 19 54 9 95
14 152 21 28 3 60 8 73 11 12 2 44 7 70 9 26 3 57 8 69 10 12 3 40 7 62 10 23
3 60 7 84 10 23 3 49 7 57 9 8 3 42 8 75 11 32 4 62 8 65 10 3 1 36 6 75 10
38 4 72 8 75 10 3 2 28 6 55 9 28 3 113 14 190 25 77 11 163 23 190 26 28 4
59 9 70 11 11 3 38 6 60 9 22 2 54 6 70 9 17 3 50 8 75 11 25 3 56 8 70 10 14
2 48 6 75 10 81 10 109 14 134 20 13 2 49 7 80 11 31 3 63 8 72 9 9 2 40 6 69
10 29 4 62 8 73 11 10 2 45 6 76 9 31 4 63 8 71 10 8 2 39 7 69 10 30 4 63 9
75 11 117 23 174 25 1035 39 294 5 354 8 415 25 39 10 82 21 96 23 14 3 45 10
70 17 25 7 54 14 65 16 11 2 32 6 47 10 15 3 29 5 30 4 2 -2 59 37 127 86 117
84 128 96 210 209 l86 120 34 150 c18 83 39 170 47 195 8 25 11 57 9 72 -3 16
-7 40 -9 55 -2 16 -6 44 -10 63 -3 19 -8 51 -11 70 -2 19 -6 44 -9 55 -2 11
-6 41 -10 66 -4 25 -9 57 -11 70 -2 13 -13 83 -25 154 -11 72 -23 146 -27 165
-3 19 -7 46 -9 60 -1 14 -11 79 -23 145 -11 66 -22 136 -25 155 -3 19 -8 46
-11 60 -3 14 -7 43 -10 65 -3 22 -7 51 -9 65 -3 14 -14 84 -26 155 -23 140
-28 175 -35 216 -3 15 -7 44 -10 65 -3 22 -7 50 -10 64 -3 14 -7 41 -10 60 -3
19 -7 46 -9 60 -5 25 -36 218 -41 255 -2 11 -6 34 -8 50 -3 17 -8 50 -12 75
-4 25 -9 59 -12 75 -3 17 -7 39 -8 50 -3 17 -8 48 -31 190 -2 17 -9 55 -14 85
-5 30 -12 73 -15 95 -10 66 -24 151 -30 185 -3 14 -7 39 -9 55 -3 17 -17 104
-31 195 -15 91 -28 176 -30 190 -2 14 -6 39 -9 55 -3 17 -19 118 -36 225 -17
107 -33 202 -35 210 -2 8 -7 38 -10 65 -4 28 -8 59 -10 70 -1 11 -10 65 -19
120 -41 244 -48 291 -51 310 -15 99 -27 177 -31 197 -2 13 -11 66 -19 118 -8
52 -17 104 -19 115 -2 11 -9 56 -16 100 -6 44 -13 91 -16 105 -2 14 -11 68
-19 120 -9 52 -18 109 -21 125 -3 17 -7 46 -10 65 -2 19 -6 42 -9 50 -2 8 -7
35 -10 60 -6 45 -10 68 -19 125 -3 17 -12 75 -21 130 -9 55 -18 111 -20 124
-2 13 -7 45 -11 70 -4 25 -8 55 -10 66 -3 11 -7 36 -10 55 -5 33 -20 127 -78
490 -14 85 -27 171 -30 190 -3 19 -17 105 -31 190 -28 166 -29 172 -39 240 -8
54 -41 258 -62 390 -9 52 -18 109 -20 125 -3 17 -7 44 -10 60 -13 79 -52 324
-59 370 -3 23 -8 52 -11 65 -3 14 -7 43 -10 65 -3 22 -7 51 -10 65 -2 14 -7
41 -10 60 -3 19 -10 62 -16 95 -5 33 -12 74 -15 90 -2 17 -11 73 -20 125 -8
52 -16 104 -18 115 -7 57 -20 139 -54 340 -18 104 -29 174 -56 360 -3 22 -8
47 -10 55 -3 8 -13 74 -25 145 -11 72 -22 139 -24 150 -2 11 -7 45 -11 75 -4
30 -9 62 -10 71 -2 9 -6 34 -10 55 -3 22 -8 50 -10 64 -2 14 -11 68 -20 120
-8 52 -17 106 -19 120 -3 14 -7 43 -11 65 -3 22 -10 69 -16 105 -6 36 -13 79
-16 95 -2 17 -13 82 -23 145 -22 134 -26 163 -40 250 -5 36 -12 76 -14 90 -6
29 -44 269 -52 320 -3 19 -18 116 -34 215 -16 99 -32 198 -35 220 -4 22 -8 47
-10 55 -2 8 -7 35 -10 60 -12 87 -17 111 -98 446 -7 28 -20 62 -30 75 -9 13
-48 67 -87 120 -62 86 -83 106 -189 182 -65 47 -134 88 -152 92 -19 4 -108 25
-198 47 l-165 39 -135 -31 c-75 -18 -149 -36 -166 -41 -16 -4 -45 -11 -62 -14
-19 -3 -82 -40 -145 -86 -93 -66 -114 -77 -116 -62 -2 10 -17 59 -34 108 -37
113 -96 221 -192 355 -134 188 -151 211 -161 223 -42 50 -315 433 -315 443 0
3 -16 30 -36 61 -36 57 -121 228 -169 343 -25 58 -28 78 -28 185 -2 144 8 271
28 380 31 165 30 206 -10 375 -20 85 -38 162 -40 170 -23 104 -40 152 -71 204
-21 34 -40 63 -43 66 -9 7 -84 110 -104 143 -10 16 -25 36 -32 45 -8 9 -41 53
-75 97 -66 87 -158 186 -209 225 -18 14 -38 30 -44 35 -7 6 -78 57 -158 113
-138 96 -228 146 -281 156 -13 2 -51 11 -86 20 -34 9 -82 21 -105 26 -23 5
-80 18 -127 30 -47 11 -92 22 -100 24 -58 14 -254 29 -263 20z m-16809 -6931
l30 -63 -51 -15 c-28 -8 -51 -14 -53 -12 -1 1 4 25 11 52 7 28 15 63 19 79 4
15 8 27 10 25 2 -2 17 -32 34 -66z"/>
</g>
</svg>
